<svg id="Layer_1" enable-background="new 0 0 512 512" height="512" viewBox="0 0 512 512" width="512" xmlns="http://www.w3.org/2000/svg"><g><path d="m80 256c0-120.176 89.826-219.372 206-234.11-9.824-1.247-19.837-1.89-30-1.89-130.339 0-236 105.661-236 236s105.661 236 236 236c10.163 0 20.176-.643 30-1.89-116.174-14.738-206-113.934-206-234.11z" fill="#cee1f2"/><path d="m256 512c-68.38 0-132.667-26.629-181.02-74.98-48.351-48.353-74.98-112.64-74.98-181.02s26.629-132.667 74.98-181.02c48.353-48.351 112.64-74.98 181.02-74.98s132.667 26.629 181.02 74.98c48.351 48.353 74.98 112.64 74.98 181.02s-26.629 132.667-74.98 181.02c-48.353 48.351-112.64 74.98-181.02 74.98zm0-472c-119.103 0-216 96.897-216 216s96.897 216 216 216 216-96.897 216-216-96.897-216-216-216zm99.875 314.263c-1.487-2.339-37.171-57.263-100.873-57.263s-99.385 54.924-100.873 57.263c-5.93 9.319-3.183 21.68 6.136 27.61 9.319 5.931 21.681 3.184 27.61-6.136.247-.387 25.138-38.737 67.127-38.737s66.88 38.35 67.127 38.737c5.93 9.319 18.291 12.066 27.61 6.136 9.32-5.93 12.067-18.291 6.136-27.61z" fill="#0023c4"/><g fill="#ff5cf4"><path d="m142.575 155.167c-10.94-1.422-20.986 6.304-22.409 17.258-1.422 10.954 6.305 20.986 17.259 22.409 15.028 1.951 25.442 5.795 33.087 12.294-6.695 4.486-11.103 12.118-11.103 20.782 0 13.807 11.193 25 25 25 20.591 0 31.683-19.91 31.683-39.146 0-11.487-4.48-22.285-12.607-30.402-14.397-14.958-34.622-24.782-60.91-28.195z"/><path d="m391.834 172.425c-1.423-10.954-11.456-18.676-22.409-17.258-26.288 3.414-46.512 13.236-60.908 28.194-8.128 8.118-12.608 18.916-12.608 30.403 0 21.493 10.784 39.146 31.683 39.146 13.807 0 25-11.193 25-25 0-8.664-4.408-16.296-11.103-20.782 7.645-6.499 18.059-10.343 33.087-12.294 10.953-1.423 18.68-11.456 17.258-22.409z"/></g></g></svg>