<svg id="Layer_1" enable-background="new 0 0 512 512" height="512" viewBox="0 0 512 512" width="512" xmlns="http://www.w3.org/2000/svg"><g><path d="m389.592 61.038c-107.694-73.418-254.515-45.632-327.933 62.063-34.82 51.077-46.85 110.95-38.412 167.623 5.851-.616 11.719-.588 17.579-.081 11.317-44.504 30.812-86.506 58.174-126.643 67.693-99.297 210.023-137.763 314.316-84.502-7.416-6.564-15.327-12.736-23.724-18.46z" fill="#cee1f2"/><path d="m256 512c-29.79 0-58.986-5.076-86.778-15.088-10.392-3.744-15.782-15.203-12.038-25.595 3.744-10.393 15.206-15.782 25.595-12.038 23.43 8.441 48.066 12.721 73.221 12.721 119.103 0 216-96.897 216-216s-96.897-216-216-216-216 96.897-216 216c0 9.81.663 19.672 1.97 29.313 1.484 10.946-6.186 21.022-17.132 22.506-10.942 1.486-21.021-6.186-22.506-17.131-1.547-11.417-2.332-23.087-2.332-34.688 0-68.38 26.629-132.667 74.98-181.02 48.353-48.351 112.64-74.98 181.02-74.98s132.667 26.629 181.02 74.98c48.351 48.353 74.98 112.64 74.98 181.02s-26.629 132.667-74.98 181.02c-48.353 48.351-112.64 74.98-181.02 74.98zm99.873-157.74c-1.488-2.338-37.172-57.263-100.873-57.263v.003c-15.958 0-31.581 3.502-46.433 10.409-10.016 4.657-14.359 16.553-9.702 26.568 4.658 10.016 16.554 14.358 26.568 9.701 9.53-4.431 19.478-6.678 29.567-6.678v-.003c41.99 0 66.88 38.35 67.127 38.737 5.93 9.319 18.291 12.066 27.61 6.136s12.066-18.291 6.136-27.61z" fill="#0023c4"/><path d="m168 165c13.807 0 25 11.193 25 25s-11.193 25-25 25-25-11.193-25-25 11.193-25 25-25zm150 25c0 13.807 11.193 25 25 25s25-11.193 25-25-11.193-25-25-25-25 11.193-25 25zm-206 255c-38.598 0-70-31.508-70-70.236 0-6.63 0-26.806 39.293-76.829 7.456-9.492 18.647-14.935 30.707-14.935s23.251 5.443 30.707 14.935c39.293 50.023 39.293 70.199 39.293 76.829 0 38.728-31.402 70.236-70 70.236zm0-121.399c-23.705 30.351-30 46.723-30 51.163 0 16.672 13.458 30.236 30 30.236s30-13.564 30-30.236c0-4.441-6.296-20.814-30-51.163zm-.75-.957s.001 0 0 0z" fill="#ff5cf3"/></g></svg>