<svg id="Layer_1" enable-background="new 0 0 512 512" height="512" viewBox="0 0 512 512" width="512" xmlns="http://www.w3.org/2000/svg"><g><path d="m80 256c0-120.176 89.826-219.372 206-234.11-9.824-1.247-19.837-1.89-30-1.89-130.339 0-236 105.661-236 236s105.661 236 236 236c10.163 0 20.176-.643 30-1.89-116.174-14.738-206-113.934-206-234.11z" fill="#cee1f2"/><path d="m256 512c-68.38 0-132.667-26.629-181.02-74.98-48.351-48.353-74.98-112.64-74.98-181.02s26.629-132.667 74.98-181.02c48.353-48.351 112.64-74.98 181.02-74.98s132.667 26.629 181.02 74.98c48.351 48.353 74.98 112.64 74.98 181.02s-26.629 132.667-74.98 181.02c-48.353 48.351-112.64 74.98-181.02 74.98zm0-472c-119.103 0-216 96.897-216 216s96.897 216 216 216 216-96.897 216-216-96.897-216-216-216zm93.737 261.188c-9.319-5.931-21.681-3.184-27.61 6.136-.247.387-25.137 38.737-67.127 38.737s-66.88-38.35-67.127-38.737c-5.93-9.319-18.291-12.066-27.61-6.136s-12.066 18.292-6.136 27.61c1.488 2.338 37.172 57.263 100.873 57.263s99.385-54.924 100.873-57.263c5.93-9.319 3.183-21.68-6.136-27.61z" fill="#0023c4"/><path d="m134.01 243.003c-5.697 0-11.355-2.421-15.312-7.121-7.113-8.451-6.028-21.067 2.422-28.181 19.657-16.545 40.184-24.814 60.954-24.699h26.926c11.046 0 20 8.954 20 20s-8.954 20-20 20h-27c-.167 0-22.89 5.006-35.121 15.301-3.751 3.157-8.322 4.7-12.869 4.7zm242.975-1.001c-4.26 0-8.552-1.355-12.188-4.155-13.118-10.103-25.69-15.094-37.356-14.837-.15.004-25.451-.009-25.451-.009-11.046-.006-19.995-8.965-19.989-20.011.006-11.042 8.959-19.989 20-19.989.004 0 24.801.014 24.801.014 20.934-.41 41.945 7.386 62.402 23.141 8.751 6.74 10.382 19.297 3.643 28.049-3.94 5.114-9.869 7.797-15.862 7.797z" fill="#ff5cf4"/></g></svg>